<svg xmlns="http://www.w3.org/2000/svg" xmlns:xlink="http://www.w3.org/1999/xlink" width="860" height="601.04"><rect width="860" height="601.04" rx="5" ry="5" class="a"/><svg y="0%" x="0%"><circle cx="20" cy="20" r="6" fill="#ff5f58"/><circle cx="40" cy="20" r="6" fill="#ffbd2e"/><circle cx="60" cy="20" r="6" fill="#18c132"/></svg><svg height="521.04" viewBox="0 0 80 52.104" width="800" x="25" xmlns="http://www.w3.org/2000/svg" xmlns:xlink="http://www.w3.org/1999/xlink" y="60"><style>@keyframes l{0%{transform:translateX(0)}.04%{transform:translateX(-80px)}.05%{transform:translateX(-160px)}7.15%{transform:translateX(-320px)}7.35%{transform:translateX(-400px)}7.55%{transform:translateX(-480px)}7.75%{transform:translateX(-560px)}7.95%{transform:translateX(-640px)}8.15%{transform:translateX(-720px)}8.35%{transform:translateX(-800px)}8.55%{transform:translateX(-880px)}8.75%{transform:translateX(-960px)}8.96%{transform:translateX(-1040px)}9.16%{transform:translateX(-1120px)}9.36%{transform:translateX(-1200px)}9.56%{transform:translateX(-1280px)}9.76%{transform:translateX(-1360px)}9.96%{transform:translateX(-1440px)}10.16%{transform:translateX(-1520px)}10.36%{transform:translateX(-1600px)}10.56%{transform:translateX(-1680px)}10.76%{transform:translateX(-1760px)}10.97%{transform:translateX(-1840px)}11.17%{transform:translateX(-1920px)}11.37%{transform:translateX(-2000px)}11.57%{transform:translateX(-2080px)}11.77%{transform:translateX(-2160px)}11.96%{transform:translateX(-2240px)}12.16%{transform:translateX(-2320px)}12.36%{transform:translateX(-2400px)}12.56%{transform:translateX(-2480px)}12.77%{transform:translateX(-2560px)}12.97%{transform:translateX(-2640px)}13.17%{transform:translateX(-2720px)}13.36%{transform:translateX(-2800px)}13.56%{transform:translateX(-2880px)}13.76%{transform:translateX(-2960px)}13.96%{transform:translateX(-3040px)}14.16%{transform:translateX(-3120px)}14.36%{transform:translateX(-3200px)}14.56%{transform:translateX(-3280px)}14.76%{transform:translateX(-3360px)}14.96%{transform:translateX(-3440px)}15.16%{transform:translateX(-3520px)}15.36%{transform:translateX(-3600px)}19.15%{transform:translateX(-3680px)}28.62%{transform:translateX(-3760px)}35.72%{transform:translateX(-3840px)}37.15%{transform:translateX(-3920px)}38.58%{transform:translateX(-4000px)}40.01%{transform:translateX(-4080px)}41.44%{transform:translateX(-4160px)}42.87%{transform:translateX(-4240px)}52.34%{transform:translateX(-4320px)}52.54%{transform:translateX(-4400px)}52.74%{transform:translateX(-4480px)}52.94%{transform:translateX(-4560px)}53.14%{transform:translateX(-4640px)}53.35%{transform:translateX(-4720px)}53.55%{transform:translateX(-4800px)}53.75%{transform:translateX(-4880px)}53.95%{transform:translateX(-4960px)}54.15%{transform:translateX(-5040px)}54.35%{transform:translateX(-5120px)}54.55%{transform:translateX(-5200px)}54.76%{transform:translateX(-5280px)}54.96%{transform:translateX(-5360px)}55.15%{transform:translateX(-5440px)}55.36%{transform:translateX(-5520px)}55.56%{transform:translateX(-5600px)}55.75%{transform:translateX(-5680px)}55.96%{transform:translateX(-5760px)}56.16%{transform:translateX(-5840px)}56.36%{transform:translateX(-5920px)}61.1%{transform:translateX(-6000px)}63.48%{transform:translateX(-6080px)}64.91%{transform:translateX(-6160px)}66.34%{transform:translateX(-6240px)}67.76%{transform:translateX(-6320px)}74.87%{transform:translateX(-6400px)}77.25%{transform:translateX(-6560px)}81.99%{transform:translateX(-6640px)}86.73%{transform:translateX(-6720px)}93.83%{transform:translateX(-6800px)}97.62%{transform:translateX(-6880px)}to{transform:translateX(-6960px)}}.a{fill:#282d35}.f{font-weight:700}.f,.g,.h,.i{fill:#b9c0cb;white-space:pre}.h,.i{fill:#a8cc8c}.i{fill:#66c2cd}</style><g font-family="Monaco,Consolas,Menlo,'Bitstream Vera Sans Mono','Powerline Symbols',monospace" font-size="1.67"><defs><symbol id="1"><text y="1.67" class="f">claude-self-improve</text><text x="20.04" y="1.67" class="g">—</text><text x="22.044" y="1.67" class="g">self-improvement</text><text x="39.078" y="1.67" class="g">loop</text><text x="44.088" y="1.67" class="g">for</text><text x="48.096" y="1.67" class="g">Claude</text><text x="55.11" y="1.67" class="g">Code</text></symbol><symbol id="2"><text y="1.67" class="h">❯</text><text x="2.004" y="1.67" class="g">claude</text></symbol><symbol id="3"><text y="1.67" class="h">❯</text><text x="2.004" y="1.67" class="g">claude</text><text x="9.018" y="1.67" class="g">--plugin-dir</text></symbol><symbol id="4"><text y="1.67" class="h">❯</text><text x="2.004" y="1.67" class="g">claude</text><text x="9.018" y="1.67" class="g">--plugin-dir</text><text x="22.044" y="1.67" class="g">./claude-self-improve</text></symbol><symbol id="5"><text y="1.67" class="g">Loading</text><text x="8.016" y="1.67" class="g">plugin:</text><text x="16.032" y="1.67" class="g">claude-self-improve</text><text x="36.072" y="1.67" class="g">v0.1.0</text></symbol><symbol id="6"><text x="2.004" y="1.67" class="g">✓</text><text x="4.008" y="1.67" class="g">Hook:</text><text x="10.02" y="1.67" class="g">PostToolUse</text><text x="22.044" y="1.67" class="g">→</text><text x="24.048" y="1.67" class="g">log-tool.sh</text></symbol><symbol id="7"><text x="2.004" y="1.67" class="g">✓</text><text x="4.008" y="1.67" class="g">Hook:</text><text x="10.02" y="1.67" class="g">Stop</text><text x="15.03" y="1.67" class="g">→</text><text x="17.034" y="1.67" class="g">on-stop.sh</text></symbol><symbol id="8"><text x="2.004" y="1.67" class="g">✓</text><text x="4.008" y="1.67" class="g">Skill:</text><text x="11.022" y="1.67" class="g">/self-improve:review</text></symbol><symbol id="9"><text x="2.004" y="1.67" class="g">✓</text><text x="4.008" y="1.67" class="g">Skill:</text><text x="11.022" y="1.67" class="g">/self-improve:status</text></symbol><symbol id="10"><text x="2.004" y="1.67" class="g">✓</text><text x="4.008" y="1.67" class="g">Skill:</text><text x="11.022" y="1.67" class="g">/self-improve:backlog-sync</text></symbol><symbol id="11"><text y="1.67" class="i">#</text><text x="2.004" y="1.67" class="i">You</text><text x="6.012" y="1.67" class="i">work</text><text x="11.022" y="1.67" class="i">normally...</text><text x="23.046" y="1.67" class="i">hooks</text><text x="29.058" y="1.67" class="i">log</text><text x="33.066" y="1.67" class="i">tool</text><text x="38.076" y="1.67" class="i">calls</text><text x="44.088" y="1.67" class="i">silently</text></symbol><symbol id="12"><text x="2.004" y="1.67" class="g">[log]</text><text x="8.016" y="1.67" class="g">Read</text><text x="13.026" y="1.67" class="g">src/main.ts</text></symbol><symbol id="13"><text x="2.004" y="1.67" class="g">[log]</text><text x="8.016" y="1.67" class="g">Grep</text><text x="13.026" y="1.67" class="g">&quot;handleError&quot;</text><text x="27.054" y="1.67" class="g">→</text><text x="29.058" y="1.67" class="g">3</text><text x="31.062" y="1.67" class="g">matches</text></symbol><symbol id="14"><text x="2.004" y="1.67" class="g">[log]</text><text x="8.016" y="1.67" class="g">Edit</text><text x="13.026" y="1.67" class="g">src/main.ts</text><text x="25.05" y="1.67" class="g">(line</text><text x="31.062" y="1.67" class="g">42)</text></symbol><symbol id="15"><text x="2.004" y="1.67" class="g">[log]</text><text x="8.016" y="1.67" class="g">Bash:</text><text x="14.028" y="1.67" class="g">npm</text><text x="18.036" y="1.67" class="g">test</text><text x="23.046" y="1.67" class="g">→</text><text x="25.05" y="1.67" class="g">FAIL</text></symbol><symbol id="16"><text x="2.004" y="1.67" class="g">[log]</text><text x="8.016" y="1.67" class="g">Bash:</text><text x="14.028" y="1.67" class="g">npm</text><text x="18.036" y="1.67" class="g">test</text><text x="23.046" y="1.67" class="g">→</text><text x="25.05" y="1.67" class="g">OK</text></symbol><symbol id="17"><text y="1.67" class="h">❯</text><text x="2.004" y="1.67" class="g">/self-improve:review</text></symbol><symbol id="18"><text y="1.67" class="f">Analyzing</text><text x="10.02" y="1.67" class="f">project...</text></symbol><symbol id="19"><text x="2.004" y="1.67" class="g">📊</text><text x="5.01" y="1.67" class="g">Tool</text><text x="10.02" y="1.67" class="g">calls</text><text x="16.032" y="1.67" class="g">logged:</text><text x="24.048" y="1.67" class="f">47</text></symbol><symbol id="20"><text x="2.004" y="1.67" class="g">❌</text><text x="4.008" y="1.67" class="g">Failures:</text><text x="14.028" y="1.67" style="white-space:pre" fill="#dbab79" font-weight="700">3</text><text x="16.032" y="1.67" class="g">(Bash:</text><text x="23.046" y="1.67" class="g">npm</text><text x="27.054" y="1.67" class="g">test)</text></symbol><symbol id="21"><text x="2.004" y="1.67" class="g">📝</text><text x="5.01" y="1.67" class="g">Stale</text><text x="11.022" y="1.67" class="g">TODOs:</text><text x="18.036" y="1.67" class="f">5</text></symbol><symbol id="22"><text x="2.004" y="1.67" class="g">🔄</text><text x="5.01" y="1.67" class="g">Git:</text><text x="10.02" y="1.67" class="g">2</text><text x="12.024" y="1.67" class="g">reverts</text><text x="20.04" y="1.67" class="g">in</text><text x="23.046" y="1.67" class="g">last</text><text x="28.056" y="1.67" class="g">7</text><text x="30.06" y="1.67" class="g">days</text></symbol><symbol id="23"><text y="1.67" class="f">Proposals:</text></symbol><symbol id="24"><text y="1.67" class="f">1.</text><text x="3.006" y="1.67" class="f">[HIGH]</text><text x="10.02" y="1.67" class="f">Fix</text><text x="14.028" y="1.67" class="f">flaky</text><text x="20.04" y="1.67" class="f">test</text><text x="25.05" y="1.67" class="f">in</text><text x="28.056" y="1.67" class="f">auth</text><text x="33.066" y="1.67" class="f">module</text></symbol><symbol id="25"><text x="3.006" y="1.67" class="g">npm</text><text x="7.014" y="1.67" class="g">test</text><text x="12.024" y="1.67" class="g">failed</text><text x="19.038" y="1.67" class="g">3x</text><text x="22.044" y="1.67" class="g">on</text><text x="25.05" y="1.67" class="g">same</text><text x="30.06" y="1.67" class="g">assertion.</text><text x="41.082" y="1.67" class="g">Root</text><text x="46.092" y="1.67" class="g">cause:</text></symbol><symbol id="26"><text x="3.006" y="1.67" class="g">async</text><text x="9.018" y="1.67" class="g">race</text><text x="14.028" y="1.67" class="g">condition</text><text x="24.048" y="1.67" class="g">in</text><text x="27.054" y="1.67" class="g">handleError().</text></symbol><symbol id="27"><text y="1.67" class="f">2.</text><text x="3.006" y="1.67" class="f">[MED]</text><text x="9.018" y="1.67" class="f">Remove</text><text x="16.032" y="1.67" class="f">stale</text><text x="22.044" y="1.67" class="f">TODO</text><text x="27.054" y="1.67" class="f">comments</text></symbol><symbol id="28"><text x="3.006" y="1.67" class="g">5</text><text x="5.01" y="1.67" class="g">TODOs</text><text x="11.022" y="1.67" class="g">older</text><text x="17.034" y="1.67" class="g">than</text><text x="22.044" y="1.67" class="g">30</text><text x="25.05" y="1.67" class="g">days,</text><text x="31.062" y="1.67" class="g">2</text><text x="33.066" y="1.67" class="g">already</text><text x="41.082" y="1.67" class="g">implemented.</text></symbol><symbol id="29"><text y="1.67" class="f">3.</text><text x="3.006" y="1.67" class="f">[LOW]</text><text x="9.018" y="1.67" class="f">Extract</text><text x="17.034" y="1.67" class="f">repeated</text><text x="26.052" y="1.67" class="f">file</text><text x="31.062" y="1.67" class="f">reads</text><text x="37.074" y="1.67" class="f">into</text><text x="42.084" y="1.67" class="f">shared</text><text x="49.098" y="1.67" class="f">util</text></symbol><symbol id="30"><text x="3.006" y="1.67" class="g">src/config.ts</text><text x="17.034" y="1.67" class="g">read</text><text x="22.044" y="1.67" class="g">12</text><text x="25.05" y="1.67" class="g">times</text><text x="31.062" y="1.67" class="g">—</text><text x="33.066" y="1.67" class="g">consider</text><text x="42.084" y="1.67" class="g">caching.</text></symbol><symbol id="31"><text y="1.67" class="h">✓</text><text x="2.004" y="1.67" class="h">Implementing</text><text x="15.03" y="1.67" class="h">#1:</text><text x="19.038" y="1.67" class="h">fix</text><text x="23.046" y="1.67" class="h">flaky</text><text x="29.058" y="1.67" class="h">test...</text></symbol><symbol id="32"><text y="1.67" class="h">✓</text><text x="2.004" y="1.67" class="h">Tests</text><text x="8.016" y="1.67" class="h">passing</text></symbol><symbol id="a"><path fill="transparent" d="M0 0h80v25H0z"/></symbol></defs><path class="a" d="M0 0h80v52.104H0z"/><g style="animation-duration:21.151053s;animation-iteration-count:infinite;animation-name:l;animation-timing-function:steps(1,end)"><svg width="7040"><svg><use xlink:href="#a"/></svg><svg x="80"><use xlink:href="#a"/></svg><svg x="160"><use xlink:href="#a"/><use xlink:href="#1" y="2.171"/></svg><svg x="240"><use xlink:href="#a"/><use xlink:href="#1" y="2.171"/><text y="8.183" class="h">❯</text></svg><svg x="320"><use xlink:href="#a"/><use xlink:href="#1" y="2.171"/><text y="8.183" class="h">❯</text><text x="2.004" y="8.183" class="g">c</text></svg><svg x="400"><use xlink:href="#a"/><use xlink:href="#1" y="2.171"/><text y="8.183" class="h">❯</text><text x="2.004" y="8.183" class="g">cl</text></svg><svg x="480"><use xlink:href="#a"/><use xlink:href="#1" y="2.171"/><text y="8.183" class="h">❯</text><text x="2.004" y="8.183" class="g">cla</text></svg><svg x="560"><use xlink:href="#a"/><use xlink:href="#1" y="2.171"/><text y="8.183" class="h">❯</text><text x="2.004" y="8.183" class="g">clau</text></svg><svg x="640"><use xlink:href="#a"/><use xlink:href="#1" y="2.171"/><text y="8.183" class="h">❯</text><text x="2.004" y="8.183" class="g">claud</text></svg><svg x="720"><use xlink:href="#a"/><use xlink:href="#1" y="2.171"/><use xlink:href="#2" y="6.513"/></svg><svg x="800"><use xlink:href="#a"/><use xlink:href="#1" y="2.171"/><use xlink:href="#2" y="6.513"/></svg><svg x="880"><use xlink:href="#a"/><use xlink:href="#1" y="2.171"/><text y="8.183" class="h">❯</text><text x="2.004" y="8.183" class="g">claude</text><text x="9.018" y="8.183" class="g">-</text></svg><svg x="960"><use xlink:href="#a"/><use xlink:href="#1" y="2.171"/><text y="8.183" class="h">❯</text><text x="2.004" y="8.183" class="g">claude</text><text x="9.018" y="8.183" class="g">--</text></svg><svg x="1040"><use xlink:href="#a"/><use xlink:href="#1" y="2.171"/><text y="8.183" class="h">❯</text><text x="2.004" y="8.183" class="g">claude</text><text x="9.018" y="8.183" class="g">--p</text></svg><svg x="1120"><use xlink:href="#a"/><use xlink:href="#1" y="2.171"/><text y="8.183" class="h">❯</text><text x="2.004" y="8.183" class="g">claude</text><text x="9.018" y="8.183" class="g">--pl</text></svg><svg x="1200"><use xlink:href="#a"/><use xlink:href="#1" y="2.171"/><text y="8.183" class="h">❯</text><text x="2.004" y="8.183" class="g">claude</text><text x="9.018" y="8.183" class="g">--plu</text></svg><svg x="1280"><use xlink:href="#a"/><use xlink:href="#1" y="2.171"/><text y="8.183" class="h">❯</text><text x="2.004" y="8.183" class="g">claude</text><text x="9.018" y="8.183" class="g">--plug</text></svg><svg x="1360"><use xlink:href="#a"/><use xlink:href="#1" y="2.171"/><text y="8.183" class="h">❯</text><text x="2.004" y="8.183" class="g">claude</text><text x="9.018" y="8.183" class="g">--plugi</text></svg><svg x="1440"><use xlink:href="#a"/><use xlink:href="#1" y="2.171"/><text y="8.183" class="h">❯</text><text x="2.004" y="8.183" class="g">claude</text><text x="9.018" y="8.183" class="g">--plugin</text></svg><svg x="1520"><use xlink:href="#a"/><use xlink:href="#1" y="2.171"/><text y="8.183" class="h">❯</text><text x="2.004" y="8.183" class="g">claude</text><text x="9.018" y="8.183" class="g">--plugin-</text></svg><svg x="1600"><use xlink:href="#a"/><use xlink:href="#1" y="2.171"/><text y="8.183" class="h">❯</text><text x="2.004" y="8.183" class="g">claude</text><text x="9.018" y="8.183" class="g">--plugin-d</text></svg><svg x="1680"><use xlink:href="#a"/><use xlink:href="#1" y="2.171"/><text y="8.183" class="h">❯</text><text x="2.004" y="8.183" class="g">claude</text><text x="9.018" y="8.183" class="g">--plugin-di</text></svg><svg x="1760"><use xlink:href="#a"/><use xlink:href="#1" y="2.171"/><use xlink:href="#3" y="6.513"/></svg><svg x="1840"><use xlink:href="#a"/><use xlink:href="#1" y="2.171"/><use xlink:href="#3" y="6.513"/></svg><svg x="1920"><use xlink:href="#a"/><use xlink:href="#1" y="2.171"/><text y="8.183" class="h">❯</text><text x="2.004" y="8.183" class="g">claude</text><text x="9.018" y="8.183" class="g">--plugin-dir</text><text x="22.044" y="8.183" class="g">.</text></svg><svg x="2000"><use xlink:href="#a"/><use xlink:href="#1" y="2.171"/><text y="8.183" class="h">❯</text><text x="2.004" y="8.183" class="g">claude</text><text x="9.018" y="8.183" class="g">--plugin-dir</text><text x="22.044" y="8.183" class="g">./</text></svg><svg x="2080"><use xlink:href="#a"/><use xlink:href="#1" y="2.171"/><text y="8.183" class="h">❯</text><text x="2.004" y="8.183" class="g">claude</text><text x="9.018" y="8.183" class="g">--plugin-dir</text><text x="22.044" y="8.183" class="g">./c</text></svg><svg x="2160"><use xlink:href="#a"/><use xlink:href="#1" y="2.171"/><text y="8.183" class="h">❯</text><text x="2.004" y="8.183" class="g">claude</text><text x="9.018" y="8.183" class="g">--plugin-dir</text><text x="22.044" y="8.183" class="g">./cl</text></svg><svg x="2240"><use xlink:href="#a"/><use xlink:href="#1" y="2.171"/><text y="8.183" class="h">❯</text><text x="2.004" y="8.183" class="g">claude</text><text x="9.018" y="8.183" class="g">--plugin-dir</text><text x="22.044" y="8.183" class="g">./cla</text></svg><svg x="2320"><use xlink:href="#a"/><use xlink:href="#1" y="2.171"/><text y="8.183" class="h">❯</text><text x="2.004" y="8.183" class="g">claude</text><text x="9.018" y="8.183" class="g">--plugin-dir</text><text x="22.044" y="8.183" class="g">./clau</text></svg><svg x="2400"><use xlink:href="#a"/><use xlink:href="#1" y="2.171"/><text y="8.183" class="h">❯</text><text x="2.004" y="8.183" class="g">claude</text><text x="9.018" y="8.183" class="g">--plugin-dir</text><text x="22.044" y="8.183" class="g">./claud</text></svg><svg x="2480"><use xlink:href="#a"/><use xlink:href="#1" y="2.171"/><text y="8.183" class="h">❯</text><text x="2.004" y="8.183" class="g">claude</text><text x="9.018" y="8.183" class="g">--plugin-dir</text><text x="22.044" y="8.183" class="g">./claude</text></svg><svg x="2560"><use xlink:href="#a"/><use xlink:href="#1" y="2.171"/><text y="8.183" class="h">❯</text><text x="2.004" y="8.183" class="g">claude</text><text x="9.018" y="8.183" class="g">--plugin-dir</text><text x="22.044" y="8.183" class="g">./claude-</text></svg><svg x="2640"><use xlink:href="#a"/><use xlink:href="#1" y="2.171"/><text y="8.183" class="h">❯</text><text x="2.004" y="8.183" class="g">claude</text><text x="9.018" y="8.183" class="g">--plugin-dir</text><text x="22.044" y="8.183" class="g">./claude-s</text></svg><svg x="2720"><use xlink:href="#a"/><use xlink:href="#1" y="2.171"/><text y="8.183" class="h">❯</text><text x="2.004" y="8.183" class="g">claude</text><text x="9.018" y="8.183" class="g">--plugin-dir</text><text x="22.044" y="8.183" class="g">./claude-se</text></svg><svg x="2800"><use xlink:href="#a"/><use xlink:href="#1" y="2.171"/><text y="8.183" class="h">❯</text><text x="2.004" y="8.183" class="g">claude</text><text x="9.018" y="8.183" class="g">--plugin-dir</text><text x="22.044" y="8.183" class="g">./claude-sel</text></svg><svg x="2880"><use xlink:href="#a"/><use xlink:href="#1" y="2.171"/><text y="8.183" class="h">❯</text><text x="2.004" y="8.183" class="g">claude</text><text x="9.018" y="8.183" class="g">--plugin-dir</text><text x="22.044" y="8.183" class="g">./claude-self</text></svg><svg x="2960"><use xlink:href="#a"/><use xlink:href="#1" y="2.171"/><text y="8.183" class="h">❯</text><text x="2.004" y="8.183" class="g">claude</text><text x="9.018" y="8.183" class="g">--plugin-dir</text><text x="22.044" y="8.183" class="g">./claude-self-</text></svg><svg x="3040"><use xlink:href="#a"/><use xlink:href="#1" y="2.171"/><text y="8.183" class="h">❯</text><text x="2.004" y="8.183" class="g">claude</text><text x="9.018" y="8.183" class="g">--plugin-dir</text><text x="22.044" y="8.183" class="g">./claude-self-i</text></svg><svg x="3120"><use xlink:href="#a"/><use xlink:href="#1" y="2.171"/><text y="8.183" class="h">❯</text><text x="2.004" y="8.183" class="g">claude</text><text x="9.018" y="8.183" class="g">--plugin-dir</text><text x="22.044" y="8.183" class="g">./claude-self-im</text></svg><svg x="3200"><use xlink:href="#a"/><use xlink:href="#1" y="2.171"/><text y="8.183" class="h">❯</text><text x="2.004" y="8.183" class="g">claude</text><text x="9.018" y="8.183" class="g">--plugin-dir</text><text x="22.044" y="8.183" class="g">./claude-self-imp</text></svg><svg x="3280"><use xlink:href="#a"/><use xlink:href="#1" y="2.171"/><text y="8.183" class="h">❯</text><text x="2.004" y="8.183" class="g">claude</text><text x="9.018" y="8.183" class="g">--plugin-dir</text><text x="22.044" y="8.183" class="g">./claude-self-impr</text></svg><svg x="3360"><use xlink:href="#a"/><use xlink:href="#1" y="2.171"/><text y="8.183" class="h">❯</text><text x="2.004" y="8.183" class="g">claude</text><text x="9.018" y="8.183" class="g">--plugin-dir</text><text x="22.044" y="8.183" class="g">./claude-self-impro</text></svg><svg x="3440"><use xlink:href="#a"/><use xlink:href="#1" y="2.171"/><text y="8.183" class="h">❯</text><text x="2.004" y="8.183" class="g">claude</text><text x="9.018" y="8.183" class="g">--plugin-dir</text><text x="22.044" y="8.183" class="g">./claude-self-improv</text></svg><svg x="3520"><use xlink:href="#a"/><use xlink:href="#1" y="2.171"/><use xlink:href="#4" y="6.513"/></svg><svg x="3600"><use xlink:href="#a"/><use xlink:href="#1" y="2.171"/><use xlink:href="#4" y="6.513"/></svg><svg x="3680"><use xlink:href="#a"/><use xlink:href="#1" y="2.171"/><use xlink:href="#4" y="6.513"/><use xlink:href="#5" y="8.684"/><use xlink:href="#6" y="10.855"/><use xlink:href="#7" y="13.026"/><use xlink:href="#8" y="15.197"/><use xlink:href="#9" y="17.368"/><use xlink:href="#10" y="19.539"/></svg><svg x="3760"><use xlink:href="#a"/><use xlink:href="#1" y="2.171"/><use xlink:href="#4" y="6.513"/><use xlink:href="#5" y="8.684"/><use xlink:href="#6" y="10.855"/><use xlink:href="#7" y="13.026"/><use xlink:href="#8" y="15.197"/><use xlink:href="#9" y="17.368"/><use xlink:href="#10" y="19.539"/><use xlink:href="#11" y="23.881"/></svg><svg x="3840"><use xlink:href="#a"/><use xlink:href="#1" y="2.171"/><use xlink:href="#4" y="6.513"/><use xlink:href="#5" y="8.684"/><use xlink:href="#6" y="10.855"/><use xlink:href="#7" y="13.026"/><use xlink:href="#8" y="15.197"/><use xlink:href="#9" y="17.368"/><use xlink:href="#10" y="19.539"/><use xlink:href="#11" y="23.881"/><use xlink:href="#12" y="26.052"/></svg><svg x="3920"><use xlink:href="#a"/><use xlink:href="#1" y="2.171"/><use xlink:href="#4" y="6.513"/><use xlink:href="#5" y="8.684"/><use xlink:href="#6" y="10.855"/><use xlink:href="#7" y="13.026"/><use xlink:href="#8" y="15.197"/><use xlink:href="#9" y="17.368"/><use xlink:href="#10" y="19.539"/><use xlink:href="#11" y="23.881"/><use xlink:href="#12" y="26.052"/><use xlink:href="#13" y="28.223"/></svg><svg x="4000"><use xlink:href="#a"/><use xlink:href="#1" y="2.171"/><use xlink:href="#4" y="6.513"/><use xlink:href="#5" y="8.684"/><use xlink:href="#6" y="10.855"/><use xlink:href="#7" y="13.026"/><use xlink:href="#8" y="15.197"/><use xlink:href="#9" y="17.368"/><use xlink:href="#10" y="19.539"/><use xlink:href="#11" y="23.881"/><use xlink:href="#12" y="26.052"/><use xlink:href="#13" y="28.223"/><use xlink:href="#14" y="30.394"/></svg><svg x="4080"><use xlink:href="#a"/><use xlink:href="#1" y="2.171"/><use xlink:href="#4" y="6.513"/><use xlink:href="#5" y="8.684"/><use xlink:href="#6" y="10.855"/><use xlink:href="#7" y="13.026"/><use xlink:href="#8" y="15.197"/><use xlink:href="#9" y="17.368"/><use xlink:href="#10" y="19.539"/><use xlink:href="#11" y="23.881"/><use xlink:href="#12" y="26.052"/><use xlink:href="#13" y="28.223"/><use xlink:href="#14" y="30.394"/><use xlink:href="#15" y="32.565"/></svg><svg x="4160"><use xlink:href="#a"/><use xlink:href="#1" y="2.171"/><use xlink:href="#4" y="6.513"/><use xlink:href="#5" y="8.684"/><use xlink:href="#6" y="10.855"/><use xlink:href="#7" y="13.026"/><use xlink:href="#8" y="15.197"/><use xlink:href="#9" y="17.368"/><use xlink:href="#10" y="19.539"/><use xlink:href="#11" y="23.881"/><use xlink:href="#12" y="26.052"/><use xlink:href="#13" y="28.223"/><use xlink:href="#14" y="30.394"/><use xlink:href="#15" y="32.565"/><use xlink:href="#14" y="34.736"/></svg><svg x="4240"><use xlink:href="#a"/><use xlink:href="#1" y="2.171"/><use xlink:href="#4" y="6.513"/><use xlink:href="#5" y="8.684"/><use xlink:href="#6" y="10.855"/><use xlink:href="#7" y="13.026"/><use xlink:href="#8" y="15.197"/><use xlink:href="#9" y="17.368"/><use xlink:href="#10" y="19.539"/><use xlink:href="#11" y="23.881"/><use xlink:href="#12" y="26.052"/><use xlink:href="#13" y="28.223"/><use xlink:href="#14" y="30.394"/><use xlink:href="#15" y="32.565"/><use xlink:href="#14" y="34.736"/><use xlink:href="#16" y="36.907"/></svg><svg x="4320"><use xlink:href="#a"/><use xlink:href="#1" y="2.171"/><use xlink:href="#4" y="6.513"/><use xlink:href="#5" y="8.684"/><use xlink:href="#6" y="10.855"/><use xlink:href="#7" y="13.026"/><use xlink:href="#8" y="15.197"/><use xlink:href="#9" y="17.368"/><use xlink:href="#10" y="19.539"/><use xlink:href="#11" y="23.881"/><use xlink:href="#12" y="26.052"/><use xlink:href="#13" y="28.223"/><use xlink:href="#14" y="30.394"/><use xlink:href="#15" y="32.565"/><use xlink:href="#14" y="34.736"/><use xlink:href="#16" y="36.907"/><text y="42.919" class="h">❯</text><text x="2.004" y="42.919" class="g">/</text></svg><svg x="4400"><use xlink:href="#a"/><use xlink:href="#1" y="2.171"/><use xlink:href="#4" y="6.513"/><use xlink:href="#5" y="8.684"/><use xlink:href="#6" y="10.855"/><use xlink:href="#7" y="13.026"/><use xlink:href="#8" y="15.197"/><use xlink:href="#9" y="17.368"/><use xlink:href="#10" y="19.539"/><use xlink:href="#11" y="23.881"/><use xlink:href="#12" y="26.052"/><use xlink:href="#13" y="28.223"/><use xlink:href="#14" y="30.394"/><use xlink:href="#15" y="32.565"/><use xlink:href="#14" y="34.736"/><use xlink:href="#16" y="36.907"/><text y="42.919" class="h">❯</text><text x="2.004" y="42.919" class="g">/s</text></svg><svg x="4480"><use xlink:href="#a"/><use xlink:href="#1" y="2.171"/><use xlink:href="#4" y="6.513"/><use xlink:href="#5" y="8.684"/><use xlink:href="#6" y="10.855"/><use xlink:href="#7" y="13.026"/><use xlink:href="#8" y="15.197"/><use xlink:href="#9" y="17.368"/><use xlink:href="#10" y="19.539"/><use xlink:href="#11" y="23.881"/><use xlink:href="#12" y="26.052"/><use xlink:href="#13" y="28.223"/><use xlink:href="#14" y="30.394"/><use xlink:href="#15" y="32.565"/><use xlink:href="#14" y="34.736"/><use xlink:href="#16" y="36.907"/><text y="42.919" class="h">❯</text><text x="2.004" y="42.919" class="g">/se</text></svg><svg x="4560"><use xlink:href="#a"/><use xlink:href="#1" y="2.171"/><use xlink:href="#4" y="6.513"/><use xlink:href="#5" y="8.684"/><use xlink:href="#6" y="10.855"/><use xlink:href="#7" y="13.026"/><use xlink:href="#8" y="15.197"/><use xlink:href="#9" y="17.368"/><use xlink:href="#10" y="19.539"/><use xlink:href="#11" y="23.881"/><use xlink:href="#12" y="26.052"/><use xlink:href="#13" y="28.223"/><use xlink:href="#14" y="30.394"/><use xlink:href="#15" y="32.565"/><use xlink:href="#14" y="34.736"/><use xlink:href="#16" y="36.907"/><text y="42.919" class="h">❯</text><text x="2.004" y="42.919" class="g">/sel</text></svg><svg x="4640"><use xlink:href="#a"/><use xlink:href="#1" y="2.171"/><use xlink:href="#4" y="6.513"/><use xlink:href="#5" y="8.684"/><use xlink:href="#6" y="10.855"/><use xlink:href="#7" y="13.026"/><use xlink:href="#8" y="15.197"/><use xlink:href="#9" y="17.368"/><use xlink:href="#10" y="19.539"/><use xlink:href="#11" y="23.881"/><use xlink:href="#12" y="26.052"/><use xlink:href="#13" y="28.223"/><use xlink:href="#14" y="30.394"/><use xlink:href="#15" y="32.565"/><use xlink:href="#14" y="34.736"/><use xlink:href="#16" y="36.907"/><text y="42.919" class="h">❯</text><text x="2.004" y="42.919" class="g">/self</text></svg><svg x="4720"><use xlink:href="#a"/><use xlink:href="#1" y="2.171"/><use xlink:href="#4" y="6.513"/><use xlink:href="#5" y="8.684"/><use xlink:href="#6" y="10.855"/><use xlink:href="#7" y="13.026"/><use xlink:href="#8" y="15.197"/><use xlink:href="#9" y="17.368"/><use xlink:href="#10" y="19.539"/><use xlink:href="#11" y="23.881"/><use xlink:href="#12" y="26.052"/><use xlink:href="#13" y="28.223"/><use xlink:href="#14" y="30.394"/><use xlink:href="#15" y="32.565"/><use xlink:href="#14" y="34.736"/><use xlink:href="#16" y="36.907"/><text y="42.919" class="h">❯</text><text x="2.004" y="42.919" class="g">/self-</text></svg><svg x="4800"><use xlink:href="#a"/><use xlink:href="#1" y="2.171"/><use xlink:href="#4" y="6.513"/><use xlink:href="#5" y="8.684"/><use xlink:href="#6" y="10.855"/><use xlink:href="#7" y="13.026"/><use xlink:href="#8" y="15.197"/><use xlink:href="#9" y="17.368"/><use xlink:href="#10" y="19.539"/><use xlink:href="#11" y="23.881"/><use xlink:href="#12" y="26.052"/><use xlink:href="#13" y="28.223"/><use xlink:href="#14" y="30.394"/><use xlink:href="#15" y="32.565"/><use xlink:href="#14" y="34.736"/><use xlink:href="#16" y="36.907"/><text y="42.919" class="h">❯</text><text x="2.004" y="42.919" class="g">/self-i</text></svg><svg x="4880"><use xlink:href="#a"/><use xlink:href="#1" y="2.171"/><use xlink:href="#4" y="6.513"/><use xlink:href="#5" y="8.684"/><use xlink:href="#6" y="10.855"/><use xlink:href="#7" y="13.026"/><use xlink:href="#8" y="15.197"/><use xlink:href="#9" y="17.368"/><use xlink:href="#10" y="19.539"/><use xlink:href="#11" y="23.881"/><use xlink:href="#12" y="26.052"/><use xlink:href="#13" y="28.223"/><use xlink:href="#14" y="30.394"/><use xlink:href="#15" y="32.565"/><use xlink:href="#14" y="34.736"/><use xlink:href="#16" y="36.907"/><text y="42.919" class="h">❯</text><text x="2.004" y="42.919" class="g">/self-im</text></svg><svg x="4960"><use xlink:href="#a"/><use xlink:href="#1" y="2.171"/><use xlink:href="#4" y="6.513"/><use xlink:href="#5" y="8.684"/><use xlink:href="#6" y="10.855"/><use xlink:href="#7" y="13.026"/><use xlink:href="#8" y="15.197"/><use xlink:href="#9" y="17.368"/><use xlink:href="#10" y="19.539"/><use xlink:href="#11" y="23.881"/><use xlink:href="#12" y="26.052"/><use xlink:href="#13" y="28.223"/><use xlink:href="#14" y="30.394"/><use xlink:href="#15" y="32.565"/><use xlink:href="#14" y="34.736"/><use xlink:href="#16" y="36.907"/><text y="42.919" class="h">❯</text><text x="2.004" y="42.919" class="g">/self-imp</text></svg><svg x="5040"><use xlink:href="#a"/><use xlink:href="#1" y="2.171"/><use xlink:href="#4" y="6.513"/><use xlink:href="#5" y="8.684"/><use xlink:href="#6" y="10.855"/><use xlink:href="#7" y="13.026"/><use xlink:href="#8" y="15.197"/><use xlink:href="#9" y="17.368"/><use xlink:href="#10" y="19.539"/><use xlink:href="#11" y="23.881"/><use xlink:href="#12" y="26.052"/><use xlink:href="#13" y="28.223"/><use xlink:href="#14" y="30.394"/><use xlink:href="#15" y="32.565"/><use xlink:href="#14" y="34.736"/><use xlink:href="#16" y="36.907"/><text y="42.919" class="h">❯</text><text x="2.004" y="42.919" class="g">/self-impr</text></svg><svg x="5120"><use xlink:href="#a"/><use xlink:href="#1" y="2.171"/><use xlink:href="#4" y="6.513"/><use xlink:href="#5" y="8.684"/><use xlink:href="#6" y="10.855"/><use xlink:href="#7" y="13.026"/><use xlink:href="#8" y="15.197"/><use xlink:href="#9" y="17.368"/><use xlink:href="#10" y="19.539"/><use xlink:href="#11" y="23.881"/><use xlink:href="#12" y="26.052"/><use xlink:href="#13" y="28.223"/><use xlink:href="#14" y="30.394"/><use xlink:href="#15" y="32.565"/><use xlink:href="#14" y="34.736"/><use xlink:href="#16" y="36.907"/><text y="42.919" class="h">❯</text><text x="2.004" y="42.919" class="g">/self-impro</text></svg><svg x="5200"><use xlink:href="#a"/><use xlink:href="#1" y="2.171"/><use xlink:href="#4" y="6.513"/><use xlink:href="#5" y="8.684"/><use xlink:href="#6" y="10.855"/><use xlink:href="#7" y="13.026"/><use xlink:href="#8" y="15.197"/><use xlink:href="#9" y="17.368"/><use xlink:href="#10" y="19.539"/><use xlink:href="#11" y="23.881"/><use xlink:href="#12" y="26.052"/><use xlink:href="#13" y="28.223"/><use xlink:href="#14" y="30.394"/><use xlink:href="#15" y="32.565"/><use xlink:href="#14" y="34.736"/><use xlink:href="#16" y="36.907"/><text y="42.919" class="h">❯</text><text x="2.004" y="42.919" class="g">/self-improv</text></svg><svg x="5280"><use xlink:href="#a"/><use xlink:href="#1" y="2.171"/><use xlink:href="#4" y="6.513"/><use xlink:href="#5" y="8.684"/><use xlink:href="#6" y="10.855"/><use xlink:href="#7" y="13.026"/><use xlink:href="#8" y="15.197"/><use xlink:href="#9" y="17.368"/><use xlink:href="#10" y="19.539"/><use xlink:href="#11" y="23.881"/><use xlink:href="#12" y="26.052"/><use xlink:href="#13" y="28.223"/><use xlink:href="#14" y="30.394"/><use xlink:href="#15" y="32.565"/><use xlink:href="#14" y="34.736"/><use xlink:href="#16" y="36.907"/><text y="42.919" class="h">❯</text><text x="2.004" y="42.919" class="g">/self-improve</text></svg><svg x="5360"><use xlink:href="#a"/><use xlink:href="#1" y="2.171"/><use xlink:href="#4" y="6.513"/><use xlink:href="#5" y="8.684"/><use xlink:href="#6" y="10.855"/><use xlink:href="#7" y="13.026"/><use xlink:href="#8" y="15.197"/><use xlink:href="#9" y="17.368"/><use xlink:href="#10" y="19.539"/><use xlink:href="#11" y="23.881"/><use xlink:href="#12" y="26.052"/><use xlink:href="#13" y="28.223"/><use xlink:href="#14" y="30.394"/><use xlink:href="#15" y="32.565"/><use xlink:href="#14" y="34.736"/><use xlink:href="#16" y="36.907"/><text y="42.919" class="h">❯</text><text x="2.004" y="42.919" class="g">/self-improve:</text></svg><svg x="5440"><use xlink:href="#a"/><use xlink:href="#1" y="2.171"/><use xlink:href="#4" y="6.513"/><use xlink:href="#5" y="8.684"/><use xlink:href="#6" y="10.855"/><use xlink:href="#7" y="13.026"/><use xlink:href="#8" y="15.197"/><use xlink:href="#9" y="17.368"/><use xlink:href="#10" y="19.539"/><use xlink:href="#11" y="23.881"/><use xlink:href="#12" y="26.052"/><use xlink:href="#13" y="28.223"/><use xlink:href="#14" y="30.394"/><use xlink:href="#15" y="32.565"/><use xlink:href="#14" y="34.736"/><use xlink:href="#16" y="36.907"/><text y="42.919" class="h">❯</text><text x="2.004" y="42.919" class="g">/self-improve:r</text></svg><svg x="5520"><use xlink:href="#a"/><use xlink:href="#1" y="2.171"/><use xlink:href="#4" y="6.513"/><use xlink:href="#5" y="8.684"/><use xlink:href="#6" y="10.855"/><use xlink:href="#7" y="13.026"/><use xlink:href="#8" y="15.197"/><use xlink:href="#9" y="17.368"/><use xlink:href="#10" y="19.539"/><use xlink:href="#11" y="23.881"/><use xlink:href="#12" y="26.052"/><use xlink:href="#13" y="28.223"/><use xlink:href="#14" y="30.394"/><use xlink:href="#15" y="32.565"/><use xlink:href="#14" y="34.736"/><use xlink:href="#16" y="36.907"/><text y="42.919" class="h">❯</text><text x="2.004" y="42.919" class="g">/self-improve:re</text></svg><svg x="5600"><use xlink:href="#a"/><use xlink:href="#1" y="2.171"/><use xlink:href="#4" y="6.513"/><use xlink:href="#5" y="8.684"/><use xlink:href="#6" y="10.855"/><use xlink:href="#7" y="13.026"/><use xlink:href="#8" y="15.197"/><use xlink:href="#9" y="17.368"/><use xlink:href="#10" y="19.539"/><use xlink:href="#11" y="23.881"/><use xlink:href="#12" y="26.052"/><use xlink:href="#13" y="28.223"/><use xlink:href="#14" y="30.394"/><use xlink:href="#15" y="32.565"/><use xlink:href="#14" y="34.736"/><use xlink:href="#16" y="36.907"/><text y="42.919" class="h">❯</text><text x="2.004" y="42.919" class="g">/self-improve:rev</text></svg><svg x="5680"><use xlink:href="#a"/><use xlink:href="#1" y="2.171"/><use xlink:href="#4" y="6.513"/><use xlink:href="#5" y="8.684"/><use xlink:href="#6" y="10.855"/><use xlink:href="#7" y="13.026"/><use xlink:href="#8" y="15.197"/><use xlink:href="#9" y="17.368"/><use xlink:href="#10" y="19.539"/><use xlink:href="#11" y="23.881"/><use xlink:href="#12" y="26.052"/><use xlink:href="#13" y="28.223"/><use xlink:href="#14" y="30.394"/><use xlink:href="#15" y="32.565"/><use xlink:href="#14" y="34.736"/><use xlink:href="#16" y="36.907"/><text y="42.919" class="h">❯</text><text x="2.004" y="42.919" class="g">/self-improve:revi</text></svg><svg x="5760"><use xlink:href="#a"/><use xlink:href="#1" y="2.171"/><use xlink:href="#4" y="6.513"/><use xlink:href="#5" y="8.684"/><use xlink:href="#6" y="10.855"/><use xlink:href="#7" y="13.026"/><use xlink:href="#8" y="15.197"/><use xlink:href="#9" y="17.368"/><use xlink:href="#10" y="19.539"/><use xlink:href="#11" y="23.881"/><use xlink:href="#12" y="26.052"/><use xlink:href="#13" y="28.223"/><use xlink:href="#14" y="30.394"/><use xlink:href="#15" y="32.565"/><use xlink:href="#14" y="34.736"/><use xlink:href="#16" y="36.907"/><text y="42.919" class="h">❯</text><text x="2.004" y="42.919" class="g">/self-improve:revie</text></svg><svg x="5840"><use xlink:href="#a"/><use xlink:href="#1" y="2.171"/><use xlink:href="#4" y="6.513"/><use xlink:href="#5" y="8.684"/><use xlink:href="#6" y="10.855"/><use xlink:href="#7" y="13.026"/><use xlink:href="#8" y="15.197"/><use xlink:href="#9" y="17.368"/><use xlink:href="#10" y="19.539"/><use xlink:href="#11" y="23.881"/><use xlink:href="#12" y="26.052"/><use xlink:href="#13" y="28.223"/><use xlink:href="#14" y="30.394"/><use xlink:href="#15" y="32.565"/><use xlink:href="#14" y="34.736"/><use xlink:href="#16" y="36.907"/><use xlink:href="#17" y="41.249"/></svg><svg x="5920"><use xlink:href="#a"/><use xlink:href="#1" y="2.171"/><use xlink:href="#4" y="6.513"/><use xlink:href="#5" y="8.684"/><use xlink:href="#6" y="10.855"/><use xlink:href="#7" y="13.026"/><use xlink:href="#8" y="15.197"/><use xlink:href="#9" y="17.368"/><use xlink:href="#10" y="19.539"/><use xlink:href="#11" y="23.881"/><use xlink:href="#12" y="26.052"/><use xlink:href="#13" y="28.223"/><use xlink:href="#14" y="30.394"/><use xlink:href="#15" y="32.565"/><use xlink:href="#14" y="34.736"/><use xlink:href="#16" y="36.907"/><use xlink:href="#17" y="41.249"/></svg><svg x="6000"><use xlink:href="#a"/><use xlink:href="#1" y="2.171"/><use xlink:href="#4" y="6.513"/><use xlink:href="#5" y="8.684"/><use xlink:href="#6" y="10.855"/><use xlink:href="#7" y="13.026"/><use xlink:href="#8" y="15.197"/><use xlink:href="#9" y="17.368"/><use xlink:href="#10" y="19.539"/><use xlink:href="#11" y="23.881"/><use xlink:href="#12" y="26.052"/><use xlink:href="#13" y="28.223"/><use xlink:href="#14" y="30.394"/><use xlink:href="#15" y="32.565"/><use xlink:href="#14" y="34.736"/><use xlink:href="#16" y="36.907"/><use xlink:href="#17" y="41.249"/><use xlink:href="#18" y="45.591"/></svg><svg x="6080"><use xlink:href="#a"/><use xlink:href="#1" y="2.171"/><use xlink:href="#4" y="6.513"/><use xlink:href="#5" y="8.684"/><use xlink:href="#6" y="10.855"/><use xlink:href="#7" y="13.026"/><use xlink:href="#8" y="15.197"/><use xlink:href="#9" y="17.368"/><use xlink:href="#10" y="19.539"/><use xlink:href="#11" y="23.881"/><use xlink:href="#12" y="26.052"/><use xlink:href="#13" y="28.223"/><use xlink:href="#14" y="30.394"/><use xlink:href="#15" y="32.565"/><use xlink:href="#14" y="34.736"/><use xlink:href="#16" y="36.907"/><use xlink:href="#17" y="41.249"/><use xlink:href="#18" y="45.591"/><use xlink:href="#19" y="47.762"/></svg><svg x="6160"><use xlink:href="#a"/><use xlink:href="#1" y="2.171"/><use xlink:href="#4" y="6.513"/><use xlink:href="#5" y="8.684"/><use xlink:href="#6" y="10.855"/><use xlink:href="#7" y="13.026"/><use xlink:href="#8" y="15.197"/><use xlink:href="#9" y="17.368"/><use xlink:href="#10" y="19.539"/><use xlink:href="#11" y="23.881"/><use xlink:href="#12" y="26.052"/><use xlink:href="#13" y="28.223"/><use xlink:href="#14" y="30.394"/><use xlink:href="#15" y="32.565"/><use xlink:href="#14" y="34.736"/><use xlink:href="#16" y="36.907"/><use xlink:href="#17" y="41.249"/><use xlink:href="#18" y="45.591"/><use xlink:href="#19" y="47.762"/><use xlink:href="#20" y="49.933"/></svg><svg x="6240"><use xlink:href="#a"/><use xlink:href="#1"/><use xlink:href="#4" y="4.342"/><use xlink:href="#5" y="6.513"/><use xlink:href="#6" y="8.684"/><use xlink:href="#7" y="10.855"/><use xlink:href="#8" y="13.026"/><use xlink:href="#9" y="15.197"/><use xlink:href="#10" y="17.368"/><use xlink:href="#11" y="21.71"/><use xlink:href="#12" y="23.881"/><use xlink:href="#13" y="26.052"/><use xlink:href="#14" y="28.223"/><use xlink:href="#15" y="30.394"/><use xlink:href="#14" y="32.565"/><use xlink:href="#16" y="34.736"/><use xlink:href="#17" y="39.078"/><use xlink:href="#18" y="43.42"/><use xlink:href="#19" y="45.591"/><use xlink:href="#20" y="47.762"/><use xlink:href="#21" y="49.933"/></svg><svg x="6320"><use xlink:href="#a"/><use xlink:href="#4"/><use xlink:href="#5" y="2.171"/><use xlink:href="#6" y="4.342"/><use xlink:href="#7" y="6.513"/><use xlink:href="#8" y="8.684"/><use xlink:href="#9" y="10.855"/><use xlink:href="#10" y="13.026"/><use xlink:href="#11" y="17.368"/><use xlink:href="#12" y="19.539"/><use xlink:href="#13" y="21.71"/><use xlink:href="#14" y="23.881"/><use xlink:href="#15" y="26.052"/><use xlink:href="#14" y="28.223"/><use xlink:href="#16" y="30.394"/><use xlink:href="#17" y="34.736"/><use xlink:href="#18" y="39.078"/><use xlink:href="#19" y="41.249"/><use xlink:href="#20" y="43.42"/><use xlink:href="#21" y="45.591"/><use xlink:href="#22" y="47.762"/></svg><svg x="6400"><use xlink:href="#a"/><use xlink:href="#6"/><use xlink:href="#7" y="2.171"/><use xlink:href="#8" y="4.342"/><use xlink:href="#9" y="6.513"/><use xlink:href="#10" y="8.684"/><use xlink:href="#11" y="13.026"/><use xlink:href="#12" y="15.197"/><use xlink:href="#13" y="17.368"/><use xlink:href="#14" y="19.539"/><use xlink:href="#15" y="21.71"/><use xlink:href="#14" y="23.881"/><use xlink:href="#16" y="26.052"/><use xlink:href="#17" y="30.394"/><use xlink:href="#18" y="34.736"/><use xlink:href="#19" y="36.907"/><use xlink:href="#20" y="39.078"/><use xlink:href="#21" y="41.249"/><use xlink:href="#22" y="43.42"/><use xlink:href="#23" y="47.762"/></svg><svg x="6480"><use xlink:href="#a"/><use xlink:href="#9"/><use xlink:href="#10" y="2.171"/><use xlink:href="#11" y="6.513"/><use xlink:href="#12" y="8.684"/><use xlink:href="#13" y="10.855"/><use xlink:href="#14" y="13.026"/><use xlink:href="#15" y="15.197"/><use xlink:href="#14" y="17.368"/><use xlink:href="#16" y="19.539"/><use xlink:href="#17" y="23.881"/><use xlink:href="#18" y="28.223"/><use xlink:href="#19" y="30.394"/><use xlink:href="#20" y="32.565"/><use xlink:href="#21" y="34.736"/><use xlink:href="#22" y="36.907"/><use xlink:href="#23" y="41.249"/><use xlink:href="#24" y="45.591"/><use xlink:href="#25" y="47.762"/><use xlink:href="#26" y="49.933"/></svg><svg x="6560"><use xlink:href="#a"/><use xlink:href="#10"/><use xlink:href="#11" y="4.342"/><use xlink:href="#12" y="6.513"/><use xlink:href="#13" y="8.684"/><use xlink:href="#14" y="10.855"/><use xlink:href="#15" y="13.026"/><use xlink:href="#14" y="15.197"/><use xlink:href="#16" y="17.368"/><use xlink:href="#17" y="21.71"/><use xlink:href="#18" y="26.052"/><use xlink:href="#19" y="28.223"/><use xlink:href="#20" y="30.394"/><use xlink:href="#21" y="32.565"/><use xlink:href="#22" y="34.736"/><use xlink:href="#23" y="39.078"/><use xlink:href="#24" y="43.42"/><use xlink:href="#25" y="45.591"/><use xlink:href="#26" y="47.762"/></svg><svg x="6640"><use xlink:href="#a"/><use xlink:href="#12"/><use xlink:href="#13" y="2.171"/><use xlink:href="#14" y="4.342"/><use xlink:href="#15" y="6.513"/><use xlink:href="#14" y="8.684"/><use xlink:href="#16" y="10.855"/><use xlink:href="#17" y="15.197"/><use xlink:href="#18" y="19.539"/><use xlink:href="#19" y="21.71"/><use xlink:href="#20" y="23.881"/><use xlink:href="#21" y="26.052"/><use xlink:href="#22" y="28.223"/><use xlink:href="#23" y="32.565"/><use xlink:href="#24" y="36.907"/><use xlink:href="#25" y="39.078"/><use xlink:href="#26" y="41.249"/><use xlink:href="#27" y="45.591"/><use xlink:href="#28" y="47.762"/></svg><svg x="6720"><use xlink:href="#a"/><use xlink:href="#15"/><use xlink:href="#14" y="2.171"/><use xlink:href="#16" y="4.342"/><use xlink:href="#17" y="8.684"/><use xlink:href="#18" y="13.026"/><use xlink:href="#19" y="15.197"/><use xlink:href="#20" y="17.368"/><use xlink:href="#21" y="19.539"/><use xlink:href="#22" y="21.71"/><use xlink:href="#23" y="26.052"/><use xlink:href="#24" y="30.394"/><use xlink:href="#25" y="32.565"/><use xlink:href="#26" y="34.736"/><use xlink:href="#27" y="39.078"/><use xlink:href="#28" y="41.249"/><use xlink:href="#29" y="45.591"/><use xlink:href="#30" y="47.762"/></svg><svg x="6800"><use xlink:href="#a"/><use xlink:href="#14"/><use xlink:href="#16" y="2.171"/><use xlink:href="#17" y="6.513"/><use xlink:href="#18" y="10.855"/><use xlink:href="#19" y="13.026"/><use xlink:href="#20" y="15.197"/><use xlink:href="#21" y="17.368"/><use xlink:href="#22" y="19.539"/><use xlink:href="#23" y="23.881"/><use xlink:href="#24" y="28.223"/><use xlink:href="#25" y="30.394"/><use xlink:href="#26" y="32.565"/><use xlink:href="#27" y="36.907"/><use xlink:href="#28" y="39.078"/><use xlink:href="#29" y="43.42"/><use xlink:href="#30" y="45.591"/><use xlink:href="#31" y="49.933"/></svg><svg x="6880"><use xlink:href="#a"/><use xlink:href="#16"/><use xlink:href="#17" y="4.342"/><use xlink:href="#18" y="8.684"/><use xlink:href="#19" y="10.855"/><use xlink:href="#20" y="13.026"/><use xlink:href="#21" y="15.197"/><use xlink:href="#22" y="17.368"/><use xlink:href="#23" y="21.71"/><use xlink:href="#24" y="26.052"/><use xlink:href="#25" y="28.223"/><use xlink:href="#26" y="30.394"/><use xlink:href="#27" y="34.736"/><use xlink:href="#28" y="36.907"/><use xlink:href="#29" y="41.249"/><use xlink:href="#30" y="43.42"/><use xlink:href="#31" y="47.762"/><use xlink:href="#32" y="49.933"/></svg><svg x="6960"><use xlink:href="#a"/><use xlink:href="#17"/><use xlink:href="#18" y="4.342"/><use xlink:href="#19" y="6.513"/><use xlink:href="#20" y="8.684"/><use xlink:href="#21" y="10.855"/><use xlink:href="#22" y="13.026"/><use xlink:href="#23" y="17.368"/><use xlink:href="#24" y="21.71"/><use xlink:href="#25" y="23.881"/><use xlink:href="#26" y="26.052"/><use xlink:href="#27" y="30.394"/><use xlink:href="#28" y="32.565"/><use xlink:href="#29" y="36.907"/><use xlink:href="#30" y="39.078"/><use xlink:href="#31" y="43.42"/><use xlink:href="#32" y="45.591"/><text y="49.432" class="h">✓</text><text x="2.004" y="49.432" class="h">PR</text><text x="5.01" y="49.432" class="h">created:</text><text x="14.028" y="49.432" class="h">improve/2026-02-22/fix-auth-race</text></svg></svg></g></g></svg></svg>